<svg xmlns="http://www.w3.org/2000/svg" viewBox="0 0 100 100"><path d="M75.244 15.066a9.636 9.636 0 00-6.857 2.843c-3.781 3.785-3.778 9.94.002 13.724 1.831 1.833 4.266 2.843 6.857 2.843s5.026-1.01 6.861-2.843c3.781-3.785 3.781-9.943-.002-13.724a9.63 9.63 0 00-6.861-2.843zm3.522 13.186c-1.871 1.869-5.129 1.869-6.996 0a4.957 4.957 0 01-.002-7 4.912 4.912 0 013.498-1.448c1.322 0 2.564.515 3.5 1.448a4.964 4.964 0 010 7zm15.866 12.775l.005-28.872c0-3.745-3.05-6.792-6.792-6.792l-28.872.005-1.237-.004c-1.893 0-4.75 0-6.617 1.869L7.008 51.342c-1.06 1.059-1.645 2.467-1.645 3.966s.583 2.908 1.644 3.968l33.717 33.717c1.058 1.06 2.467 1.645 3.966 1.645s2.908-.585 3.968-1.645l44.106-44.111c1.893-1.886 1.88-4.604 1.869-7.227l-.001-.628zm-4.61 5.112L45.913 90.25c-.654.65-1.792.652-2.443 0L9.752 56.532a1.717 1.717 0 01-.507-1.225c0-.462.18-.894.507-1.221l44.109-44.11c.676-.674 2.284-.731 3.874-.731l1.237.004 28.872-.004a2.913 2.913 0 012.909 2.911l-.005 28.872.005.642c.007 1.915.016 3.722-.731 4.469z"/></svg>