<svg xmlns="http://www.w3.org/2000/svg" version="1.0" viewBox="0 0 564 544"><path d="M157.8 106c-4.5 1.3-9.4 4.8-12.3 8.6-3.3 4.3-4.4 13.1-2.5 18.8 1.6 5 6.6 10.5 11.5 12.7 3.8 1.8 9.8 1.9 114.6 1.9 81.1 0 111.5-.3 114-1.2 8.5-2.8 13-8.4 14.5-18 1.2-7.4-4.9-18.5-12.1-21.9-2.5-1.2-21.2-1.4-114-1.6-61-.1-112.2.2-113.7.7zm105.6 64.4c-2.3.7-5.2 2-6.5 2.9-1.3.9-26.7 26-56.5 55.7-58.5 58.2-59.4 59.3-59.4 69.2 0 9.6 6.3 18.4 15.3 21.4 7 2.3 12.6 1.3 20.4-3.6 1.3-.8 18-17.2 37.3-36.5l35-35v103.6c-.1 72.8.3 104.4 1 106.5 1.4 3.6 6.5 9 10.5 11.1 3.7 2 15.5 1.9 19.3-.1 3.8-2 7.8-6.5 9.6-10.8 1.4-3.2 1.6-16.2 1.6-106.2 0-56.4.4-102.6.8-102.6s16.5 15.8 35.7 35.1c19.6 19.6 36.8 36 39 37.2 5.3 2.8 14.3 2.8 20.3 0 10.3-4.9 14.9-18.7 9.8-29.4-2.1-4.4-112.1-114.7-116.8-117.1-4.7-2.4-11.5-3-16.4-1.4z" fill="currentColor"/></svg>