<svg xmlns="http://www.w3.org/2000/svg" viewBox="0 0 846.66 846.66" shape-rendering="geometricPrecision" text-rendering="geometricPrecision" image-rendering="optimizeQuality"><path class="fil0" d="M351.26 453.22C74.84 587.28 126.4 789.44 126.53 790.02c6.03 25.41-32.58 34.56-38.6 9.15-.15-.65-55.78-219.32 218.87-367.66-60.98-39-100.02-106.82-100.02-182.56 0-119.6 96.95-216.55 216.55-216.55 119.6 0 216.55 96.95 216.55 216.55 0 75.74-39.04 143.56-100.02 182.56 274.65 148.34 219.02 367.01 218.87 367.66-6.02 25.41-44.63 16.26-38.6-9.15.13-.58 51.69-202.74-224.73-336.8-22.55 7.96-46.8 12.29-72.07 12.29-25.27 0-49.52-4.33-72.07-12.29zm72.07-381.14c-97.68 0-176.87 79.19-176.87 176.87 0 97.69 79.19 176.87 176.87 176.87S600.2 346.64 600.2 248.95c0-97.68-79.19-176.87-176.87-176.87z"/></svg>